HIERARCHY
ROOT Hips
{
	OFFSET 0.000000 0.000000 0.000000
	CHANNELS 6 Xposition Yposition Zposition Zrotation Xrotation Yrotation
	JOINT Spine1
	{
		OFFSET 0.000000 -55.538940 -0.000019
		CHANNELS 6 Xposition Yposition Zposition Zrotation Xrotation Yrotation
		JOINT Neck
		{
			OFFSET 0.000000 -44.277603 -0.000015
			CHANNELS 6 Xposition Yposition Zposition Zrotation Xrotation Yrotation
			JOINT Head
			{
				OFFSET 0.000000 -28.153603 -3.632728
				CHANNELS 6 Xposition Yposition Zposition Zrotation Xrotation Yrotation
				End Site
				{
					OFFSET 0.000000 -36.327110 -0.000012
				}
			}
		}
		JOINT LeftShoulder
		{
			OFFSET 7.315340 -35.751801 0.960236
			CHANNELS 6 Xposition Yposition Zposition Zrotation Xrotation Yrotation
			JOINT LeftArm
			{
				OFFSET 26.103201 0.000000 0.000000
				CHANNELS 6 Xposition Yposition Zposition Zrotation Xrotation Yrotation
				JOINT LeftForeArm
				{
					OFFSET 51.184196 0.000000 0.000000
					CHANNELS 6 Xposition Yposition Zposition Zrotation Xrotation Yrotation
					JOINT LeftHand
					{
						OFFSET 47.569000 0.000000 0.000000
						CHANNELS 6 Xposition Yposition Zposition Zrotation Xrotation Yrotation
						End Site
						{
							OFFSET 27.245331 0.000000 0.000000
						}
					}
				}
			}
		}
		JOINT RightShoulder
		{
			OFFSET -7.214420 -35.751801 0.960236
			CHANNELS 6 Xposition Yposition Zposition Zrotation Xrotation Yrotation
			JOINT RightArm
			{
				OFFSET -26.103199 0.000000 0.000000
				CHANNELS 6 Xposition Yposition Zposition Zrotation Xrotation Yrotation
				JOINT RightForeArm
				{
					OFFSET -51.184196 0.000000 0.000000
					CHANNELS 6 Xposition Yposition Zposition Zrotation Xrotation Yrotation
					JOINT RightHand
					{
						OFFSET -47.569016 0.000000 0.000000
						CHANNELS 6 Xposition Yposition Zposition Zrotation Xrotation Yrotation
						End Site
						{
							OFFSET -27.245331 0.000000 0.000000
						}
					}
				}
			}
		}
	}
	JOINT LeftUpLeg
	{
		OFFSET 18.163601 0.000000 0.000000
		CHANNELS 6 Xposition Yposition Zposition Zrotation Xrotation Yrotation
		JOINT LeftLeg
		{
			OFFSET 0.000000 76.389801 0.000024
			CHANNELS 6 Xposition Yposition Zposition Zrotation Xrotation Yrotation
			JOINT LeftFoot
			{
				OFFSET 0.000000 80.085999 0.000027
				CHANNELS 6 Xposition Yposition Zposition Zrotation Xrotation Yrotation
				JOINT LeftToeBase
				{
					OFFSET 0.000000 11.806335 -27.245394
					CHANNELS 6 Xposition Yposition Zposition Zrotation Xrotation Yrotation
					End Site
					{
						OFFSET 0.000000 0.000000 -7.265423
					}
				}
			}
		}
	}
	JOINT RightUpLeg
	{
		OFFSET -18.163601 0.000000 0.000000
		CHANNELS 6 Xposition Yposition Zposition Zrotation Xrotation Yrotation
		JOINT RightLeg
		{
			OFFSET 0.000000 76.389801 0.000024
			CHANNELS 6 Xposition Yposition Zposition Zrotation Xrotation Yrotation
			JOINT RightFoot
			{
				OFFSET 0.000000 80.085999 0.000027
				CHANNELS 6 Xposition Yposition Zposition Zrotation Xrotation Yrotation
				JOINT RightToeBase
				{
					OFFSET 0.000000 11.806335 -27.245394
					CHANNELS 6 Xposition Yposition Zposition Zrotation Xrotation Yrotation
					End Site
					{
						OFFSET 0.000000 0.000000 -7.265423
					}
				}
			}
		}
	}
}
MOTION
Frames: 8
Frame Time: 0.016667
3.885357 -144.450287 -28.649033 -2.357482 13.816530 5.066806 0.000002 -55.538944 -0.000026 -2.219971 -13.344109 2.294673 -0.000000 -44.277630 -0.000011 -2.905447 7.893643 -4.855217 -0.000000 -28.153631 -3.632712 5.794733 -1.768640 -6.263018 7.315330 -35.751797 0.960239 -21.792285 -5.930689 -2.796938 26.103214 -0.000031 -0.000017 10.092400 -8.946009 11.454491 51.184219 -0.000017 0.000002 -4.359137 -16.169587 7.689392 47.568993 0.000038 0.000004 10.363849 -17.523246 -18.665686 -7.214422 -35.751770 0.960235 17.211763 0.013797 6.515186 -26.103197 0.000034 -0.000001 -1.487462 25.369361 -20.637895 -51.184189 0.000019 -0.000008 47.106736 -37.696067 -81.904248 -47.569050 0.000044 0.000010 33.344970 3.164846 -5.654971 18.163601 0.000010 -0.000008 -29.326254 -26.466449 -30.009498 -0.000007 76.389801 0.000013 26.123682 42.861032 -25.327458 -0.000016 80.085991 0.000020 -0.315309 -14.276461 -21.499899 -0.000003 11.806335 -27.245398 0.000002 0.000001 0.000003 -18.163605 -0.000020 -0.000004 39.911066 -27.976086 5.596241 0.000009 76.389793 0.000028 -39.832004 20.311302 37.649423 0.000014 80.086029 0.000016 -1.978336 -7.480545 35.953645 0.000006 11.806336 -27.245401 0.000000 0.000000 -0.000004 
3.877459 -144.469498 -28.664785 -2.341987 13.810917 5.144589 0.000001 -55.538944 -0.000022 -2.269680 -13.327452 2.243013 -0.000004 -44.277584 -0.000012 -2.903973 7.876440 -4.869292 0.000008 -28.153622 -3.632740 5.787395 -1.815031 -6.273673 7.315330 -35.751793 0.960237 -21.789330 -5.938261 -2.803059 26.103231 -0.000062 0.000004 10.098535 -9.139421 11.405145 51.184208 -0.000062 0.000002 -4.336629 -16.203649 7.637305 47.569012 -0.000024 -0.000022 10.309092 -17.551952 -18.667757 -7.214427 -35.751793 0.960235 17.221091 0.011251 6.485387 -26.103201 0.000010 -0.000002 -1.456737 25.368110 -20.620867 -51.184196 -0.000012 -0.000031 47.150162 -37.728671 -81.842544 -47.569038 -0.000034 0.000039 33.395124 3.134484 -5.601108 18.163603 -0.000035 -0.000004 -29.357809 -26.411080 -29.964303 -0.000003 76.389778 0.000008 26.179060 42.815198 -25.370820 -0.000009 80.086029 0.000028 -0.313586 -14.279723 -21.564550 0.000002 11.806334 -27.245382 -0.000001 -0.000001 0.000002 -18.163599 -0.000036 0.000000 39.874682 -27.980879 5.739865 0.000002 76.389786 0.000025 -39.785603 20.375301 37.497742 0.000020 80.085953 0.000020 -1.979532 -7.411674 35.889417 -0.000004 11.806334 -27.245377 0.000001 0.000000 0.000003 
3.866035 -144.486694 -28.680981 -2.311094 13.799628 5.207133 -0.000000 -55.538921 -0.000029 -2.319801 -13.301435 2.189417 -0.000001 -44.277637 -0.000008 -2.929512 7.848963 -4.876948 -0.000002 -28.153622 -3.632733 5.792428 -1.859809 -6.284379 7.315339 -35.751816 0.960240 -21.783889 -5.944084 -2.792083 26.103205 -0.000012 0.000001 10.073577 -9.247861 11.337003 51.184204 -0.000026 0.000004 -4.347697 -16.213173 7.607542 47.569008 0.000000 0.000015 10.317639 -17.562368 -18.658875 -7.214421 -35.751831 0.960238 17.228047 0.028987 6.465096 -26.103207 0.000028 -0.000006 -1.482873 25.243356 -20.577559 -51.184196 -0.000006 -0.000035 47.063384 -37.681331 -81.924028 -47.569042 0.000001 0.000049 33.421331 3.162792 -5.595973 18.163599 0.000008 -0.000010 -29.386161 -26.364841 -29.999301 -0.000005 76.389763 0.000031 26.123175 42.816813 -25.370041 -0.000011 80.086014 0.000034 -0.288710 -14.294624 -21.548545 -0.000012 11.806320 -27.245390 -0.000000 -0.000000 0.000005 -18.163607 0.000015 -0.000006 39.824729 -27.980621 5.964738 0.000015 76.389771 0.000023 -39.714032 20.495991 37.319768 0.000024 80.085983 0.000029 -1.964214 -7.316149 35.824069 0.000000 11.806335 -27.245390 -0.000000 -0.000003 0.000003 
3.860851 -144.493469 -28.698877 -2.303695 13.780364 5.272682 0.000001 -55.538933 -0.000026 -2.346173 -13.265195 2.133262 -0.000001 -44.277653 -0.000016 -2.939762 7.820044 -4.888406 0.000006 -28.153627 -3.632735 5.773039 -1.915545 -6.292594 7.315333 -35.751827 0.960230 -21.768965 -5.956284 -2.782547 26.103205 -0.000049 -0.000011 10.026182 -9.335245 11.261958 51.184200 -0.000006 -0.000003 -4.362432 -16.181744 7.603221 47.568977 -0.000038 0.000009 10.344018 -17.531381 -18.623370 -7.214420 -35.751812 0.960231 17.229357 0.058065 6.461744 -26.103209 -0.000035 -0.000002 -1.464784 25.191093 -20.576601 -51.184181 -0.000005 -0.000019 47.087611 -37.686901 -81.877255 -47.569038 -0.000017 0.000016 33.465325 3.153403 -5.554675 18.163603 -0.000013 -0.000010 -29.399207 -26.298897 -30.031099 0.000003 76.389771 0.000022 26.107140 42.802323 -25.350585 -0.000013 80.085983 0.000018 -0.292853 -14.307330 -21.566363 -0.000006 11.806334 -27.245396 -0.000000 -0.000000 0.000002 -18.163603 -0.000004 -0.000003 39.799007 -27.984479 6.194555 -0.000009 76.389778 0.000021 -39.647021 20.636568 37.210048 0.000016 80.086014 0.000014 -1.973658 -7.260142 35.690655 0.000001 11.806336 -27.245384 -0.000001 -0.000002 0.000004 
3.859689 -144.501434 -28.713770 -2.304363 13.758036 5.330853 0.000000 -55.538975 -0.000028 -2.365091 -13.216919 2.085638 -0.000001 -44.277622 -0.000015 -2.947893 7.794247 -4.895768 -0.000005 -28.153551 -3.632732 5.743077 -1.978704 -6.294691 7.315331 -35.751827 0.960242 -21.765742 -5.980820 -2.771081 26.103197 -0.000027 -0.000011 9.991885 -9.378788 11.184895 51.184204 0.000013 -0.000008 -4.389611 -16.175807 7.613230 47.568981 -0.000030 0.000005 10.357473 -17.521662 -18.579778 -7.214419 -35.751820 0.960239 17.231968 0.042671 6.444777 -26.103212 0.000007 -0.000003 -1.466570 25.155201 -20.538293 -51.184181 0.000021 -0.000019 47.073288 -37.681689 -81.873245 -47.569042 -0.000013 -0.000034 33.493964 3.149774 -5.514447 18.163601 -0.000040 -0.000004 -29.406550 -26.230795 -30.064570 0.000007 76.389763 0.000022 26.099307 42.786214 -25.340167 -0.000011 80.085976 0.000024 -0.287506 -14.322323 -21.563583 0.000005 11.806335 -27.245394 0.000002 -0.000002 -0.000002 -18.163601 -0.000022 -0.000006 39.800994 -27.980522 6.375025 0.000009 76.389771 0.000023 -39.620070 20.733710 37.105809 0.000017 80.085999 0.000022 -1.980525 -7.205533 35.617405 -0.000000 11.806335 -27.245388 -0.000001 0.000003 -0.000001 
3.855149 -144.502167 -28.731110 -2.309919 13.735378 5.364940 0.000002 -55.538944 -0.000026 -2.416644 -13.175873 2.061879 -0.000002 -44.277637 -0.000011 -2.843351 7.774092 -4.926878 0.000003 -28.153658 -3.632731 5.650332 -2.040026 -6.291860 7.315334 -35.751804 0.960240 -21.653414 -5.991138 -2.771987 26.103205 0.000015 -0.000002 9.879017 -9.365003 11.137145 51.184212 -0.000023 0.000006 -4.407376 -16.149511 7.631993 47.569000 -0.000070 0.000016 10.334168 -17.488261 -18.559480 -7.214422 -35.751797 0.960238 17.349954 0.051549 6.452675 -26.103209 0.000027 0.000013 -1.541808 25.117845 -20.540387 -51.184200 -0.000016 -0.000010 47.078657 -37.675911 -81.869516 -47.569023 -0.000012 0.000037 33.486423 3.152909 -5.539460 18.163605 -0.000010 -0.000006 -29.404241 -26.171758 -30.099121 0.000009 76.389771 0.000003 26.090049 42.775863 -25.298075 -0.000012 80.086037 0.000023 -0.288040 -14.332037 -21.570893 0.000004 11.806335 -27.245388 -0.000001 0.000001 0.000003 -18.163605 -0.000015 -0.000004 39.825747 -27.951666 6.523855 0.000007 76.389778 0.000022 -39.621845 20.791589 37.114049 0.000019 80.085999 0.000017 -2.002571 -7.165514 35.461424 -0.000007 11.806336 -27.245403 -0.000003 0.000001 0.000004 
3.855515 -144.507172 -28.753830 -2.308687 13.718741 5.377663 0.000001 -55.538914 -0.000022 -2.396196 -13.146102 2.043100 -0.000003 -44.277622 -0.000017 -2.913744 7.761353 -4.924194 -0.000004 -28.153568 -3.632727 5.643844 -2.089929 -6.299806 7.315332 -35.751823 0.960227 -21.689983 -5.991593 -2.762930 26.103174 0.000008 0.000002 9.833563 -9.260966 11.075869 51.184193 0.000032 0.000001 -4.433767 -16.171742 7.678226 47.569042 -0.000055 -0.000006 10.267768 -17.495907 -18.552602 -7.214419 -35.751823 0.960231 17.311647 0.065383 6.462066 -26.103201 0.000008 0.000004 -1.511328 25.111015 -20.529573 -51.184181 0.000013 0.000003 47.165772 -37.689653 -81.760417 -47.569038 -0.000015 0.000006 33.507696 3.150222 -5.511909 18.163599 0.000023 0.000000 -29.404367 -26.123898 -30.129826 -0.000003 76.389793 0.000016 26.076820 42.762626 -25.279119 -0.000013 80.085976 0.000027 -0.294165 -14.334993 -21.545922 -0.000004 11.806317 -27.245382 -0.000002 -0.000006 0.000002 -18.163605 0.000028 0.000001 39.861725 -27.903478 6.628924 0.000007 76.389793 0.000032 -39.653835 20.806527 37.074923 0.000013 80.086021 0.000028 -2.040347 -7.136207 35.385489 0.000006 11.806333 -27.245388 0.000001 -0.000001 0.000001 
3.862425 -144.508621 -28.776360 -2.315692 13.699123 5.385054 0.000000 -55.538925 -0.000023 -2.382028 -13.115701 2.045306 -0.000003 -44.277607 -0.000004 -2.939774 7.753656 -4.934165 0.000003 -28.153589 -3.632737 5.608524 -2.137080 -6.308961 7.315334 -35.751820 0.960240 -21.686390 -5.958984 -2.794645 26.103220 -0.000029 -0.000003 9.765619 -9.182078 11.073749 51.184219 -0.000025 -0.000011 -4.469327 -16.165287 7.712460 47.568981 -0.000008 0.000001 10.216372 -17.477247 -18.545529 -7.214422 -35.751804 0.960240 17.312684 0.085975 6.449422 -26.103191 0.000021 0.000004 -1.529174 25.020655 -20.497251 -51.184166 -0.000007 -0.000007 47.133568 -37.653508 -81.780819 -47.569008 -0.000007 0.000022 33.510800 3.169564 -5.529786 18.163597 0.000011 -0.000006 -29.392169 -26.073725 -30.187261 -0.000001 76.389793 0.000004 26.041971 42.758654 -25.244504 -0.000012 80.086044 0.000029 -0.281389 -14.341929 -21.492012 0.000004 11.806318 -27.245380 0.000001 -0.000003 0.000003 -18.163603 -0.000001 -0.000001 39.937400 -27.852895 6.650364 0.000012 76.389771 0.000025 -39.754112 20.761335 37.179479 0.000018 80.085999 0.000022 -2.098073 -7.081768 35.275096 -0.000013 11.806334 -27.245384 0.000000 0.000000 0.000001 
